<?xml version="1.0" encoding="utf-8"?>
<!-- Generator: Adobe Illustrator 24.0.1, SVG Export Plug-In . SVG Version: 6.00 Build 0)  -->
<svg version="1.1" xmlns="http://www.w3.org/2000/svg" xmlns:xlink="http://www.w3.org/1999/xlink" x="0px" y="0px"
	 viewBox="0 0 300 276.33" style="enable-background:new 0 0 300 276.33;" xml:space="preserve">
<style type="text/css">
	.st0{fill:#E4A330;}
	.st1{fill:#E1972F;}
	.st2{fill:#C72B2C;}
	.st3{fill:#7C4226;}
	.st4{fill:#A35F30;}
	.st5{fill:#4D713D;}
	.st6{fill:#FFFFFF;}
	.st7{fill:#AD262B;}
	.st8{fill:#844D29;}
	.st9{fill:#EEC131;}
	.st10{fill:#EBBA63;}
</style>
<g id="BG">
</g>
<g id="Object">
	<g>
		<g>
			<path class="st0" d="M249.56,276.33H50.44c-24.9,0-45.27-20.37-45.27-45.27v0c0-4.42,3.61-8.03,8.03-8.03h273.6
				c4.42,0,8.03,3.61,8.03,8.03v0C294.83,255.96,274.46,276.33,249.56,276.33z"/>
			<path class="st1" d="M294.83,249.65v-21.89c0-2.6-2.13-4.73-4.73-4.73h-14.87c-34.18,26.75-94.74,42.63-148.13,53.3h141.04
				C282.82,276.33,294.83,264.32,294.83,249.65z"/>
		</g>
		<path class="st2" d="M276.95,161.88H23.05c-5.76,0-10.46,4.71-10.46,10.46v0c0,5.76,4.71,10.46,10.46,10.46h253.9
			c5.76,0,10.46-4.71,10.46-10.46v0C287.41,166.59,282.7,161.88,276.95,161.88z"/>
		<path class="st3" d="M244.46,223.03h25.43c9.32,0,16.94-7.62,16.94-16.94v-6.34c0-6-3.17-11.28-7.91-14.3
			C273.65,202.88,256.63,215.76,244.46,223.03z"/>
		<path class="st4" d="M282.04,162.57H20.66c-5.05-3.66-8.08-6.69-8.08-10.39v-27.56c0-3.7,3.03-6.73,6.73-6.73h261.37
			c3.7,0,6.73,3.03,6.73,6.73v27.56C287.41,155.88,284.39,158.9,282.04,162.57z"/>
		<path class="st5" d="M298.87,132.94c-0.04-0.07-11.77-23.37-11.77-23.37H157.83h-15.66H12.91c0,0-11.74,23.3-11.77,23.37
			c-6.03,11.98,13.66,14.79,19.99,10.89c2.58-1.59,4.53-4.13,7.04-5.81c8.14-5.45,17.2-2.26,24.13,3.93c0,0,22.73,24.34,43.84,1.91
			c7.05-7.49,15.63-11.51,25.15-6.43c8.62,4.6,15.15,13.62,24.31,17.02c6.33,2.35,13.3,0.31,18.53-4.08
			c3.52-2.95,5.38-7.52,9.23-10.01c9.97-6.43,22.25-5.28,30.52,3.5c21.11,22.42,43.84-1.92,43.84-1.92
			c6.93-6.19,15.99-9.37,24.13-3.93c2.51,1.68,4.45,4.21,7.04,5.81C285.2,147.74,304.9,144.92,298.87,132.94z"/>
		<path class="st0" d="M7.53,113.64L7.53,113.64C7.53,60.12,69.01,0,147.24,0h0C225.47,0,292,60.12,292,113.64v0H7.53z"/>
		<path class="st1" d="M233.79,27.56c-16.98,44.96-56.03,71.23-89.46,86.08h147.49C291.18,79.21,262.87,43.39,233.79,27.56z"/>
		<g>
			<path class="st6" d="M96.6,39.31c-2.84,3.38-6.39,5.08-7.93,3.79c-1.53-1.29-0.47-5.08,2.37-8.46c2.84-3.38,6.39-5.08,7.93-3.79
				C100.5,32.14,99.44,35.93,96.6,39.31z"/>
			<path class="st6" d="M199.14,40.12c-3.83,2.21-7.74,2.6-8.74,0.86c-1-1.73,1.29-4.93,5.12-7.14c3.83-2.21,7.74-2.6,8.74-0.86
				C205.26,34.71,202.97,37.91,199.14,40.12z"/>
			
				<ellipse transform="matrix(0.2083 -0.9781 0.9781 0.2083 77.2593 172.5969)" class="st6" cx="145.24" cy="38.58" rx="8" ry="3.63"/>
			<path class="st6" d="M124.95,23.12c2.92,3.32,4.07,7.08,2.56,8.41c-1.5,1.32-5.09-0.3-8.01-3.61c-2.92-3.32-4.07-7.08-2.56-8.41
				C118.45,18.18,122.03,19.8,124.95,23.12z"/>
			<path class="st6" d="M174.79,24.13c4.11,1.63,6.84,4.46,6.1,6.32c-0.74,1.86-4.67,2.05-8.78,0.42c-4.11-1.63-6.84-4.46-6.1-6.32
				C166.76,22.68,170.69,22.5,174.79,24.13z"/>
		</g>
		<path class="st7" d="M62.91,163.76l72,20.47h44.6C179.51,184.23,136.18,164.54,62.91,163.76z"/>
		<path class="st8" d="M272.04,223.03H27.96c-9.58,0-17.42-7.84-17.42-17.42v-5.37c0-9.58,7.84-17.42,17.42-17.42h244.08
			c9.58,0,17.42,7.84,17.42,17.42v5.37C289.46,215.19,281.62,223.03,272.04,223.03z"/>
		<path class="st3" d="M129.64,182.81c0,0,68.87,20.05,89.57,35.53l37.47-34.96L129.64,182.81z"/>
		<path class="st9" d="M218.09,207.13l42.85-44.47L52.4,162.57C52.4,162.57,147.33,169.13,218.09,207.13z"/>
		<path class="st10" d="M15.61,105.37c0,0,17.23-76.05,102.56-92.95C118.17,12.43,54.13,48.28,15.61,105.37z"/>
	</g>
</g>
</svg>
